<svg width="266" height="139" viewBox="0 0 266 139" fill="none" xmlns="http://www.w3.org/2000/svg">
<path d="M136.778 45.196L136.538 45.7684L137.148 45.8811C151.856 48.5963 162.88 60.4765 162.88 74.6383C162.88 90.811 148.519 103.994 130.704 103.994H36.7604C16.6983 103.994 0.5 89.1317 0.5 70.9064C0.5 56.5062 10.5916 44.2227 24.711 39.6845L25.073 39.5681L25.0576 39.1882C25.032 38.5567 25.007 37.9371 25.007 37.3192C25.007 17.018 43.0178 0.5 65.3519 0.5C80.3254 0.5 93.3606 7.92832 100.337 18.9732L100.6 19.3904L101.021 19.1325C104.823 16.8014 109.429 15.4277 114.366 15.4277C127.663 15.4277 138.373 25.2749 138.373 37.3192C138.373 40.0955 137.8 42.7589 136.778 45.196Z" fill="white" stroke="black"/>
<path d="M214.098 77.3552L213.861 77.9256L214.468 78.0387C226.492 80.2775 235.5 90.0721 235.5 101.743C235.5 115.07 223.766 125.94 209.2 125.94H132.15C115.742 125.94 102.5 113.681 102.5 98.6554C102.5 86.7833 110.749 76.653 122.296 72.9097L122.657 72.7928L122.641 72.414C122.62 71.8914 122.6 71.3805 122.6 70.8713C122.6 54.1287 137.328 40.5 155.6 40.5C167.849 40.5 178.511 46.629 184.217 55.7396L184.48 56.161L184.903 55.8995C188.007 53.9799 191.769 52.8485 195.8 52.8485C206.66 52.8485 215.4 60.959 215.4 70.8713C215.4 73.1565 214.933 75.3489 214.098 77.3552Z" fill="white" stroke="black"/>
<path d="M255.931 92.6953L255.729 93.2397L256.298 93.3585C261.534 94.4528 265.5 99.2559 265.5 105.028C265.5 111.623 260.336 116.94 254 116.94H219.5C212.339 116.94 206.5 110.925 206.5 103.477C206.5 97.5958 210.139 92.607 215.19 90.7694L215.531 90.645L215.518 90.2816C215.509 90.0183 215.5 89.7655 215.5 89.5141C215.5 81.2027 222.004 74.5 230 74.5C235.365 74.5 240.051 77.5123 242.566 82.0201L242.835 82.5016L243.288 82.1872C244.633 81.2536 246.26 80.7056 248 80.7056C252.677 80.7056 256.5 84.6352 256.5 89.5141C256.5 90.6362 256.295 91.7119 255.931 92.6953Z" fill="white" stroke="black"/>
<path d="M128.931 113.695L128.729 114.24L129.298 114.358C134.534 115.453 138.5 120.256 138.5 126.028C138.5 132.623 133.336 137.94 127 137.94H92.5C85.3388 137.94 79.5 131.925 79.5 124.477C79.5 118.596 83.1391 113.607 88.1897 111.769L88.5314 111.645L88.5184 111.282C88.509 111.018 88.5 110.765 88.5 110.514C88.5 102.203 95.0044 95.5 103 95.5C108.365 95.5 113.051 98.5123 115.566 103.02L115.835 103.502L116.288 103.187C117.633 102.254 119.26 101.706 121 101.706C125.677 101.706 129.5 105.635 129.5 110.514C129.5 111.636 129.295 112.712 128.931 113.695Z" fill="white" stroke="black"/>
</svg>
