<svg width="206" height="126" viewBox="0 0 206 126" fill="none" xmlns="http://www.w3.org/2000/svg">
<path d="M164.821 45.196L164.581 45.7684L165.191 45.8811C179.898 48.5963 190.922 60.4765 190.922 74.6383C190.922 90.811 176.562 103.994 158.747 103.994H64.8032C44.7411 103.994 28.5428 89.1317 28.5428 70.9064C28.5428 56.5062 38.6343 44.2227 52.7538 39.6845L53.1158 39.5681L53.1004 39.1882C53.0748 38.5567 53.0497 37.9371 53.0497 37.3192C53.0497 17.018 71.0605 0.5 93.3947 0.5C108.368 0.5 121.403 7.92832 128.379 18.9732L128.643 19.3904L129.063 19.1325C132.865 16.8014 137.472 15.4277 142.409 15.4277C155.706 15.4277 166.416 25.2749 166.416 37.3192C166.416 40.0955 165.843 42.7589 164.821 45.196Z" fill="white" stroke="black"/>
<path d="M195.931 81.6953L195.729 82.2397L196.298 82.3585C201.534 83.4528 205.5 88.2559 205.5 94.0282C205.5 100.623 200.336 105.94 194 105.94H159.5C152.339 105.94 146.5 99.9253 146.5 92.4768C146.5 86.5958 150.139 81.607 155.19 79.7694L155.531 79.645L155.518 79.2816C155.509 79.0183 155.5 78.7655 155.5 78.5141C155.5 70.2027 162.004 63.5 170 63.5C175.365 63.5 180.051 66.5123 182.566 71.0201L182.835 71.5016L183.288 71.1872C184.633 70.2536 186.26 69.7056 188 69.7056C192.677 69.7056 196.5 73.6352 196.5 78.5141C196.5 79.6362 196.295 80.7119 195.931 81.6953Z" fill="white" stroke="black"/>
<path d="M168.932 71.5235L168.725 72.0719L169.299 72.1898C181.385 74.6704 190.5 85.5436 190.5 98.5714C190.5 113.453 178.63 125.5 164 125.5H86.375C69.889 125.5 56.5 111.91 56.5 95.1429C56.5 81.8995 64.8445 70.6435 76.4604 66.4923L76.8052 66.3691L76.7919 66.0032C76.7707 65.4231 76.75 64.8537 76.75 64.2857C76.75 45.6115 91.6367 30.5 110 30.5C122.319 30.5 133.063 37.2945 138.822 47.4327L139.09 47.9045L139.539 47.5989C142.665 45.4675 146.449 44.2143 150.5 44.2143C161.396 44.2143 170.25 53.1973 170.25 64.2857C170.25 66.838 169.776 69.2854 168.932 71.5235Z" fill="white" stroke="black"/>
<path d="M60.9819 89.1226L60.7778 89.6689L61.3488 89.7873C67.7881 91.1215 72.6551 96.9737 72.6551 103.996C72.6551 112.019 66.3175 118.5 58.5241 118.5H16.4599C7.66058 118.5 0.5 111.175 0.5 102.121C0.5 94.9708 4.96278 88.8995 11.1658 86.6618L11.509 86.538L11.4958 86.1734C11.4843 85.8554 11.4733 85.548 11.4733 85.242C11.4733 75.1444 19.4454 66.9875 29.262 66.9875C35.8481 66.9875 41.5969 70.6541 44.6804 76.1334L44.9487 76.6103L45.3996 76.3001C47.0571 75.1595 49.0622 74.4893 51.2086 74.4893C56.9788 74.4893 61.6818 79.2938 61.6818 85.242C61.6818 86.6106 61.4302 87.9229 60.9819 89.1226Z" fill="white" stroke="black"/>
</svg>
